<svg version="1.1" id="Layer_1" xmlns="http://www.w3.org/2000/svg" xmlns:xlink="http://www.w3.org/1999/xlink" x="0px" y="0px"
	 width="100%" viewBox="0 0 736 736" enable-background="new 0 0 736 736" xml:space="preserve">
<path fill="#000000" opacity="1.000000" stroke="none" 
	d="
M617.800110,531.557983 
	C624.665527,562.521179 618.677917,590.555298 601.821228,616.747742 
	C590.281677,634.678223 574.862976,648.241760 557.120728,659.604004 
	C532.758606,675.205811 505.998657,684.174438 477.707947,689.256104 
	C452.944183,693.704224 427.951538,696.359802 402.868408,696.702515 
	C383.933044,696.961243 365.042847,694.251099 346.686035,689.129456 
	C333.942841,685.573975 325.330536,677.125183 320.490295,664.964722 
	C315.382233,652.131409 322.024567,642.311768 329.687866,633.215149 
	C338.637085,622.592041 351.092041,619.000610 364.330383,617.683105 
	C381.628174,615.961548 398.863983,618.815430 416.144287,618.642578 
	C449.129120,618.312622 481.554382,614.635498 512.361938,601.872986 
	C536.711487,591.785706 550.513184,573.081970 555.382080,547.636536 
	C557.126648,538.519226 554.320618,530.033447 548.185242,523.027100 
	C535.213013,508.213409 518.140930,500.885010 499.338257,496.832245 
	C496.505005,496.221588 495.666992,497.279297 495.125305,500.019287 
	C491.845673,516.607117 485.760162,532.230347 474.512421,544.900513 
	C457.365021,564.216553 436.087494,577.618347 411.242676,585.177673 
	C396.950531,589.526245 382.356506,591.634705 367.447754,591.277649 
	C363.454163,591.182007 361.139465,592.497559 359.062836,595.992920 
	C349.348633,612.343201 334.739960,620.612732 315.756439,620.968872 
	C308.784393,621.099670 301.818298,621.322632 294.884827,619.676270 
	C273.747589,614.657288 262.109772,596.240601 267.010498,575.097534 
	C267.533569,572.840942 268.113495,570.643738 267.493988,567.642578 
	C260.631744,570.843933 253.995132,573.638123 246.825516,573.891541 
	C229.603745,574.500305 213.165802,572.123779 200.278946,559.113464 
	C190.193512,548.931396 188.481400,533.056030 195.890869,520.868164 
	C199.114853,515.565063 203.035675,510.724854 207.595474,506.612701 
	C217.240662,497.914307 219.787796,486.254395 221.508820,474.350159 
	C222.311447,468.798553 221.571579,463.036804 221.755539,457.377594 
	C221.851608,454.421661 220.550369,452.782623 218.013824,451.597015 
	C201.300125,443.784851 186.132401,433.571472 172.128036,421.623352 
	C150.766861,403.398590 132.486862,382.730743 124.742210,355.033203 
	C116.096382,324.112793 116.168938,293.005951 125.023460,261.946228 
	C129.809021,245.159515 137.563446,229.806473 145.308548,214.277664 
	C157.432922,189.968521 172.250015,167.507935 189.344177,146.581955 
	C209.509796,121.896065 230.907639,98.474831 259.093658,82.260605 
	C270.195312,75.874298 280.579315,68.540466 293.125122,64.758003 
	C311.341309,59.265976 325.024567,64.621460 336.550476,79.256660 
	C345.764984,90.956963 353.219849,103.371880 356.912292,117.791885 
	C359.000916,125.948570 362.970703,130.444763 371.731842,133.157074 
	C396.877533,140.941803 419.873962,153.414200 440.616791,169.770233 
	C446.133301,174.120087 452.726471,173.397400 458.817047,173.488647 
	C480.668823,173.816040 502.094666,176.951630 522.336731,184.892349 
	C541.016418,192.220200 559.762207,199.982086 575.201538,213.530914 
	C586.529724,223.472015 589.069214,236.308197 587.924927,250.667816 
	C586.377991,270.080627 575.409851,285.271210 565.480347,300.688049 
	C543.295105,335.133423 515.221375,364.386688 483.465179,390.155762 
	C478.013550,394.579529 473.121918,399.557190 468.253021,404.584595 
	C466.264557,406.637787 465.915039,408.321655 468.106873,410.484436 
	C474.685944,416.976196 479.707275,424.631195 484.253723,432.621307 
	C485.521179,434.848846 486.879700,437.053009 489.971130,436.550964 
	C501.295593,434.711853 512.143127,437.544464 522.896179,440.262756 
	C552.892761,447.845642 577.840149,463.462036 597.491638,487.563721 
	C607.990967,500.440613 613.488953,515.448669 617.800110,531.557983 
M294.371185,408.140808 
	C299.676422,416.701752 306.109558,424.302368 313.830322,430.777527 
	C331.263519,445.398132 351.510559,451.484985 373.846130,448.319885 
	C398.413788,444.838501 417.973907,431.779694 433.114868,412.509003 
	C453.724609,386.277985 462.625702,356.336456 459.860687,322.943512 
	C458.246765,303.452515 452.525116,285.419189 441.562225,269.218842 
	C416.900360,232.775040 374.160553,221.357162 336.902161,242.015259 
	C300.962769,261.942078 283.252411,294.433868 278.618805,334.054688 
	C275.603088,359.841248 280.124268,384.862457 294.371185,408.140808 
M131.092712,329.632111 
	C133.705948,351.567963 140.419968,371.937561 155.164047,388.833832 
	C167.385666,402.839478 188.212616,406.810608 204.069077,400.646545 
	C216.102997,395.968414 226.051743,388.006256 233.923645,377.827026 
	C254.566498,351.133575 262.507385,319.974731 264.546112,287.027283 
	C265.545929,270.870148 263.958344,254.752518 259.490540,239.143097 
	C255.115295,223.857193 249.719757,208.901108 237.133545,198.061203 
	C228.580139,190.694550 219.393951,184.085373 207.426605,184.425003 
	C191.724487,184.870621 178.541565,191.427155 167.369888,202.323593 
	C152.498428,216.828690 143.812241,234.885071 137.939667,254.386063 
	C130.631393,278.654510 127.111031,303.379181 131.092712,329.632111 
M501.108551,276.250305 
	C501.358948,278.559540 501.620514,280.867676 501.857849,283.178223 
	C502.911102,293.431274 503.570801,303.643921 502.704681,314.005219 
	C501.504639,328.361084 498.110107,342.185486 494.231110,355.956848 
	C493.767517,357.602722 492.555603,359.418549 494.643494,360.988464 
	C495.103729,360.892700 495.651855,360.912262 496.038574,360.672028 
	C497.022919,360.060333 497.971161,359.376862 498.870880,358.644714 
	C524.844543,337.510040 546.077637,312.258270 563.288940,283.639465 
	C569.194031,273.820496 574.526062,263.616699 575.472412,251.768127 
	C575.752625,248.259583 575.704468,245.643570 571.151978,246.207581 
	C568.187256,246.574860 565.214294,246.902924 562.267944,247.387573 
	C539.360901,251.155548 519.518555,261.548218 501.108551,276.250305 
z"/>
<path fill="#000000" opacity="1.000000" stroke="none" 
	d="
M405.656372,398.697815 
	C394.627350,408.157776 382.192108,413.716461 368.001587,413.104431 
	C349.846954,412.321411 336.013519,403.200043 327.026733,387.565613 
	C311.994568,361.414001 313.101288,334.471283 324.707062,307.491119 
	C329.710114,295.860504 337.193848,285.903107 347.216339,277.983124 
	C375.066254,255.975510 410.814484,264.017731 426.611633,295.856049 
	C442.789734,328.462128 433.521332,374.451050 405.656372,398.697815 
z"/>
<path fill="#000000" opacity="1.000000" stroke="none" 
	d="
M203.884827,223.670837 
	C219.127472,224.552551 228.484100,233.276840 234.905350,245.561890 
	C244.584549,264.079895 245.325119,283.916168 241.681259,303.960419 
	C238.245300,322.861023 230.962448,340.154968 216.062088,353.058899 
	C195.253586,371.079376 170.624619,366.047302 158.031693,341.436584 
	C148.769043,323.334259 147.771088,304.036011 151.097061,284.456940 
	C154.193954,266.226349 161.003586,249.529739 174.545425,236.311584 
	C182.534912,228.513031 191.726517,223.155121 203.884827,223.670837 
z"/>
</svg>